<svg width="849" height="300" viewBox="0 0 849 300" fill="none" xmlns="http://www.w3.org/2000/svg">
<path d="M158.4 2.39993L163.7 53.8999H159.3C154.5 37.9999 147.4 26.2999 137.9 18.7999C128.4 11.2999 116.1 7.49992 101 7.49992H93.2C81.1 7.49992 72.6 9.79992 67.5 14.4999C62.5 19.1999 60 26.8999 60 37.7999V84.8999H78.4C92.3 84.8999 102.5 82.6999 108.9 78.2999C115.3 73.8999 119.6 65.9999 122 54.5999H126.2V124.6H122C120.2 115.4 117.7 108.3 114.6 103.5C111.5 98.6999 107.2 95.1999 101.6 93.2999C96 91.2999 88.4 90.2999 78.8 90.2999H60V150.2C60 159.3 60.9 166.3 62.6 171.2C64.3 176 67.3 179.4 71.6 181.4C75.9 183.3 81.9 184.3 89.7 184.3H102.4C114.9 184.3 126.9 180.4 138.1 172.7C150.6 164 162.8 151.9 174.8 136.4L175.9 134.9H180.7L164.4 191.4H0.799988V187C10.8 185.3 18 181.5 22.5 175.5C26 171.1 27.8 162.3 27.8 149.1V44.5999C27.8 36.1999 27.3 30.0999 26.4 26.2999C25.5 22.4999 23.8 19.2999 21.3 16.5999C16.7 11.3999 9.89999 8.09992 0.799988 6.59992V2.29993H158.4V2.39993ZM20.2 184.2H60.6L55.2 180.2C52.1 177.9 50.1 176 49.2 174.7C48.3 173.3 47.9 171.2 47.9 168.5C47.9 167 47.9 166 47.8 165.5C47.8 165 47.7 164.5 47.7 163.9V161.5V32.0999V29.6999C47.7 29.0999 47.7 28.5999 47.8 27.9999C47.8 27.3999 47.9 26.4999 47.9 25.0999C47.9 22.2999 48.4 20.1999 49.4 18.6999C50.4 17.1999 52.3 15.3999 55.3 13.3999L63.2 7.59992H17.8L25.7 13.3999C28.8 15.6999 30.8 17.5999 31.7 18.8999C32.6 20.2999 33 22.3999 33 25.0999C33.1 26.6999 33.1 28.1999 33.1 29.6999V32.0999V161.5V163.9C33.1 165.4 33.1 166.9 33 168.5C33 171.4 32.6 173.5 31.8 174.8C31 176.1 28.9 178 25.7 180.3L20.2 184.2ZM116.1 78.8999C113.5 81.2999 111.5 82.8999 110.1 83.7999C108.7 84.6999 105.7 85.9999 101.2 87.6999C106.4 89.1999 111.3 92.1999 116.1 96.6999V78.8999ZM148 7.49992H128C133.2 9.59992 137.3 11.8999 140.5 14.3999C143.6 16.8999 147.1 20.6999 151 25.8999L148 7.49992ZM154.5 184.2L162.3 158.5C159 162.2 155.7 165.5 152.4 168.5C149.1 171.5 145.4 174.3 141.3 177C137.2 179.7 133 182.1 128.8 184.2H154.5Z" fill="#615258"/>
<path d="M261.9 81.8L267.7 113.9H264C261.2 103.4 256.9 95.1 250.9 89.1C244.9 83.1 238.1 80 230.3 80C225.7 80 221.8 81.4 218.7 84.1C215.6 86.8 214.1 90.2 214.1 94.1C214.1 97.8 215.3 100.8 217.8 103.2C220.2 105.6 225.8 109.1 234.3 113.8C248.3 121.5 258.1 127.5 263.6 131.9C272.4 138.6 276.7 147.4 276.7 158.2C276.7 163.6 275.6 168.5 273.5 172.9C271.4 177.2 268.2 181 264.1 184.2C259.9 187.4 255 189.9 249.3 191.6C243.6 193.3 237.3 194.2 230.6 194.2C219.4 194.2 206.1 191.7 190.5 186.6L187.2 144.5H190.5C198.8 173.2 211.7 187.5 229.3 187.5C235.5 187.5 240.6 185.7 244.6 182C248.6 178.3 250.6 173.5 250.6 167.5C250.6 161.4 248.2 156.5 243.5 152.8C240.7 150.6 233.9 146.5 223 140.5C212.1 134.5 204.6 129.8 200.6 126.4C194 121 190.8 114 190.8 105.6C190.8 96.6 194.3 89.2 201.4 83.5C208.5 77.8 217.6 75 228.7 75C237.7 75 248.7 77.3 261.9 81.8ZM194.6 183L197.1 183.8C200.7 185.2 204.9 186.4 209.6 187.5L212.6 188.2C208.3 185.3 204.7 182.5 201.9 179.5C199.1 176.5 196.2 172.7 193.2 167.8L194.6 183ZM240.2 188.9C248.5 187.8 255 184.9 259.7 180.2C264.4 175.5 266.8 169.5 266.8 162.2C266.8 155 264.1 148.6 258.8 143.1C254.2 138.2 245.3 132.3 232.1 125.4C221.2 119.5 213.9 114.7 210.2 111.1C206.5 107.5 204.6 103.3 204.6 98.6C204.6 91.5 208.6 85.2 216.6 79.6C209.9 81.8 204.7 85.1 201 89.6C197.4 94 195.5 99.2 195.5 105C195.5 111.8 197.9 117.4 202.7 121.7C206.4 125.1 213.8 130 225 136.2C237.1 142.8 244.8 147.5 248.1 150.6C253 155 255.4 160.6 255.4 167.2C255.4 177.8 250.3 185 240.2 188.9Z" fill="#615258"/>
<path d="M327.6 82.1V155.5C327.6 162.7 328 168.5 328.9 172.9C329.8 177.3 331.2 180.5 333.1 182.5C335 184.5 337.5 185.5 340.6 185.5C346.2 185.5 353.1 182.2 361.4 175.5L363.5 178.8C357.3 184.2 351.7 188 346.6 190.4C341.5 192.8 336.3 194 331 194C320.7 194 312.8 190.6 307.4 183.7C302 176.8 299.3 166.8 299.3 153.7V81.6H286.6V78.3C293.5 77.4 299.6 74.9 304.7 70.8C309.9 66.7 314 61.1 317.2 54C320.4 46.9 322.7 38.1 324.1 27.6H327.6V77.8H357.9V82H327.6V82.1ZM316.7 64.2C313.5 69.6 309.2 73.8 304 76.8V147.4V150.6C304 155.9 304.2 160.5 304.7 164.5C305.2 168.5 305.9 171.7 306.8 174.1C307.8 176.5 309.2 178.9 311.2 181.2C316.4 187.2 323.1 190.2 331.3 190.2C332.8 190.2 334.1 190.2 335.2 190.1C331.1 189.2 328 188 325.7 186.5C323.4 185 321.7 182.9 320.4 180.1C319.1 177.3 318.2 173.4 317.6 168.5C317 163.6 316.8 157.6 316.8 150.4V146.5V64.2H316.7Z" fill="#615258"/>
<path d="M413.3 103.7C419 97 424.5 91.4 429.8 87C435.1 82.6 440.1 79.5 445 77.7C449.9 75.9 455.2 74.9 460.9 74.9C467.9 74.9 474.4 76.6 480.5 79.9C486.5 83.2 491.2 87.7 494.4 93.3C498.1 99.6 499.9 108.1 499.9 118.8V164.8C499.9 172.5 501 177.9 503.3 181.1C505.6 184.3 509.8 186.5 516.1 187.6V191.3H455.3V187.6C461.6 186.5 465.8 184.3 468.1 181.1C470.4 177.9 471.5 172.4 471.5 164.8V118C471.5 107.9 470.9 101 469.6 97.1C468.2 92.9 466 89.6 463 87.2C460 84.8 456.3 83.7 452.1 83.7C446.2 83.7 440.4 85.7 434.9 89.7C429.3 93.7 422.1 100.8 413.4 111.2V164.9C413.4 172.6 414.5 178 416.8 181.2C419.1 184.4 423.3 186.6 429.6 187.7V191.4H368.8V187.7C375.1 186.6 379.4 184.4 381.7 181.3C384 178.1 385.2 172.6 385.2 164.9V31C385.2 23.2 384 17.7 381.7 14.5C379.3 11.2 375.1 9.09997 368.9 8.19997V5.19997L413.5 0.0999756V103.7H413.3ZM382.6 185.2H410.3L407 182.7C406.8 182.5 406.6 182.4 406.4 182.3L404.6 180.9C403.3 179.6 402.6 177.9 402.5 175.6V172.8V5.79998L379.8 8.29998L385.2 12.2C385.3 12.2 385.5 12.3 385.8 12.6L387.6 14C388.5 14.6 389.1 15.6 389.4 16.8C389.7 18 389.8 20.2 389.8 23.4V171.5C389.8 175.3 389.6 177.6 389.2 178.6C388.8 179.5 387.7 180.8 385.9 182.3C385.6 182.5 385.5 182.6 385.5 182.7L382.6 185.2ZM469.2 185.2H496.7L493.5 182.7C493.2 182.4 493 182.3 492.9 182.3L491.1 180.9C489.7 179.5 489 177.8 489 175.6V172.8L488.9 171.4V118.5C488.9 111.5 488.4 106 487.5 101.9C486.6 97.8 485 94.3 482.8 91.2C477.1 83.4 469.7 79.6 460.5 79.6C459.6 79.6 457.5 79.8 454.1 80.2C459.8 81 464.2 82.7 467.4 85.3C470.5 87.8 472.8 91.6 474.1 96.7C475.4 101.8 476.1 108.8 476.1 117.7V171.4C476.1 175.2 475.9 177.5 475.6 178.5C475.3 179.4 474.2 180.7 472.3 182.2C472.1 182.4 472 182.5 472 182.5C472 182.5 471.9 182.5 471.8 182.6L469.2 185.2Z" fill="#615258"/>
<path d="M559.2 126.8V129.8C559.2 140.8 560.8 150.4 564 158.7C567.2 167 571.8 173.3 577.8 177.9C583.8 182.4 590.7 184.7 598.8 184.7C603 184.7 607.3 184 611.6 182.6C615.9 181.2 620.1 179.1 624.3 176.4C628.5 173.7 633.2 169.9 638.5 165.1L641.3 168.8C631.8 178 622.8 184.6 614.2 188.6C605.7 192.6 596.1 194.6 585.6 194.6C574.6 194.6 564.8 192.2 556 187.4C547.2 182.6 540.5 175.8 535.7 167.1C530.9 158.3 528.5 148.5 528.5 137.5C528.5 126 531.2 115.4 536.5 105.8C541.8 96.2 549 88.7 558.2 83.2C567.4 77.8 577.6 75 589 75C598.7 75 607.6 77 615.6 81C623.7 85 630 90.6 634.5 97.7C639.3 105.1 642 114.8 642.5 126.9H559.2V126.8ZM591.6 190.3C585 189.5 579.8 188.2 575.8 186.6C571.8 184.9 568 182.4 564.2 178.8C558.6 173.6 554.2 166.8 551.1 158.4C548 150 546.4 140.8 546.4 130.8C546.4 123.9 547.1 117.5 548.4 111.7C549.7 105.9 551.8 100.7 554.6 96.1C557.4 91.5 561.2 87.1 566 83C555.5 88.7 547.4 96.3 541.8 105.7C536.2 115.1 533.4 125.6 533.4 137.3C533.4 147.3 535.7 156.3 540.2 164.5C544.7 172.7 551 179.1 559.1 183.7C567.2 188.3 576.1 190.6 585.9 190.6C588 190.5 589.9 190.4 591.6 190.3ZM559.2 122H614.4C614.3 109.5 613.1 100.6 610.7 95.1C608.6 90.1 605.5 86.3 601.6 83.5C597.6 80.8 593.2 79.4 588.3 79.4C570.5 79.5 560.8 93.6 559.2 122ZM631.2 122C630.9 115.2 629.7 109 627.5 103.5C625.3 98 622.2 93.3 618.3 89.5C614.4 85.7 609.7 82.9 604.4 81.3C609.7 85.5 613.6 90.6 616 96.4C618.4 102.2 619.5 109.5 619.5 118.3C619.5 119.8 619.5 121.1 619.4 122.2H631.2V122Z" fill="#615258"/>
<path d="M693.9 82.1V155.5C693.9 162.7 694.3 168.5 695.2 172.9C696.1 177.3 697.5 180.5 699.4 182.5C701.3 184.5 703.8 185.5 706.9 185.5C712.5 185.5 719.4 182.2 727.7 175.5L729.8 178.8C723.6 184.2 718 188 712.9 190.4C707.8 192.8 702.6 194 697.3 194C687 194 679.1 190.6 673.7 183.7C668.3 176.8 665.6 166.8 665.6 153.7V81.6H652.9V78.3C659.8 77.4 665.9 74.9 671 70.8C676.2 66.7 680.3 61.1 683.5 54C686.7 46.9 689 38.1 690.4 27.6H693.9V77.8H724V82H693.9V82.1ZM682.9 64.2C679.7 69.6 675.4 73.8 670.2 76.8V147.4V150.6C670.2 155.9 670.4 160.5 670.9 164.5C671.4 168.5 672.1 171.7 673 174.1C674 176.5 675.4 178.9 677.4 181.2C682.6 187.2 689.3 190.2 697.5 190.2C699 190.2 700.3 190.2 701.4 190.1C697.3 189.2 694.2 188 691.9 186.5C689.6 185 687.9 182.9 686.6 180.1C685.3 177.3 684.4 173.4 683.8 168.5C683.2 163.6 683 157.6 683 150.4V146.5V64.2H682.9Z" fill="#615258"/>
<path d="M765.6 126.8V129.8C765.6 140.8 767.2 150.4 770.4 158.7C773.6 167 778.2 173.3 784.2 177.9C790.2 182.4 797.1 184.7 805.2 184.7C809.4 184.7 813.7 184 818 182.6C822.3 181.2 826.5 179.1 830.7 176.4C834.9 173.7 839.6 169.9 844.9 165.1L847.7 168.8C838.2 178 829.2 184.6 820.6 188.6C812.1 192.6 802.5 194.6 792 194.6C781 194.6 771.2 192.2 762.4 187.4C753.6 182.6 746.9 175.8 742.1 167.1C737.3 158.3 734.9 148.5 734.9 137.5C734.9 126 737.6 115.4 742.9 105.8C748.2 96.2 755.4 88.7 764.6 83.2C773.8 77.8 784 75 795.4 75C805.1 75 814 77 822 81C830.1 85 836.4 90.6 840.9 97.7C845.7 105.1 848.4 114.8 848.9 126.9H765.6V126.8ZM797.9 190.3C791.3 189.5 786.1 188.2 782.1 186.6C778.1 184.9 774.3 182.4 770.5 178.8C764.9 173.6 760.5 166.8 757.4 158.4C754.3 150 752.7 140.8 752.7 130.8C752.7 123.9 753.4 117.5 754.7 111.7C756 105.9 758.1 100.7 760.9 96.1C763.7 91.5 767.5 87.1 772.3 83C761.8 88.7 753.7 96.3 748.1 105.7C742.5 115.1 739.7 125.6 739.7 137.3C739.7 147.3 742 156.3 746.5 164.5C751 172.7 757.3 179.1 765.4 183.7C773.5 188.3 782.4 190.6 792.2 190.6C794.3 190.5 796.3 190.4 797.9 190.3ZM765.6 122H820.8C820.7 109.5 819.5 100.6 817.1 95.1C815 90.1 811.9 86.3 808 83.5C804 80.8 799.6 79.4 794.7 79.4C776.9 79.5 767.2 93.6 765.6 122ZM837.5 122C837.2 115.2 836 109 833.8 103.5C831.6 98 828.5 93.3 824.6 89.5C820.7 85.7 816 82.9 810.7 81.3C816 85.5 819.9 90.6 822.3 96.4C824.7 102.2 825.8 109.5 825.8 118.3C825.8 119.8 825.8 121.1 825.7 122.2H837.5V122Z" fill="#615258"/>
<path d="M849 211.9H0.799988V235.3H849V211.9Z" fill="#615258"/>
<path d="M33.3 249.1L34.2 262H33.3C32.1 258.1 30.5 255.4 28.4 253.7C26.3 252 23.7 251.2 20.7 251.2C18.2 251.2 15.9 251.8 13.9 253.1C11.9 254.4 10.3 256.4 9.09998 259.2C7.89998 262 7.39996 265.5 7.39996 269.6C7.39996 273 7.89998 276 9.09998 278.5C10.2 281 11.9 282.9 14.1 284.3C16.3 285.6 18.8 286.3 21.7 286.3C24.2 286.3 26.3 285.8 28.2 284.7C30.1 283.6 32.2 281.6 34.4 278.4L35.3 279C33.4 282.4 31.2 284.8 28.6 286.4C26 288 23.1 288.7 19.6 288.7C13.3 288.7 8.49997 286.4 4.99997 281.7C2.39997 278.2 1.09998 274.1 1.09998 269.5C1.09998 265.7 1.89998 262.2 3.59998 259.1C5.29998 255.9 7.59998 253.5 10.6 251.7C13.6 250 16.8 249.1 20.3 249.1C23 249.1 25.7 249.8 28.4 251.1C29.2 251.5 29.7 251.7 30.1 251.7C30.6 251.7 31 251.5 31.4 251.2C31.9 250.7 32.2 250 32.4 249.1H33.3V249.1Z" fill="#615258"/>
<path d="M53.3 284.2C50.7 286.2 49 287.4 48.4 287.7C47.4 288.2 46.3 288.4 45.2 288.4C43.4 288.4 42 287.8 40.8 286.6C39.7 285.4 39.1 283.8 39.1 281.8C39.1 280.6 39.4 279.5 39.9 278.6C40.7 277.3 42 276.1 43.9 275C45.8 273.9 48.9 272.5 53.3 270.9V269.9C53.3 267.3 52.9 265.6 52.1 264.6C51.3 263.6 50.1 263.2 48.6 263.2C47.4 263.2 46.5 263.5 45.8 264.2C45.1 264.8 44.7 265.6 44.7 266.4L44.8 268C44.8 268.9 44.6 269.5 44.1 270C43.7 270.5 43.1 270.7 42.4 270.7C41.7 270.7 41.1 270.5 40.7 270C40.3 269.5 40 268.9 40 268C40 266.4 40.8 264.9 42.5 263.6C44.1 262.3 46.4 261.6 49.4 261.6C51.7 261.6 53.5 262 55 262.7C56.1 263.3 56.9 264.2 57.4 265.4C57.7 266.2 57.9 267.8 57.9 270.3V279C57.9 281.4 57.9 282.9 58 283.5C58.1 284.1 58.2 284.4 58.5 284.6C58.7 284.8 59 284.9 59.2 284.9C59.5 284.9 59.8 284.8 60 284.7C60.4 284.5 61.1 283.8 62.3 282.7V284.3C60.2 287.1 58.2 288.5 56.3 288.5C55.4 288.5 54.7 288.2 54.1 287.5C53.6 286.8 53.3 285.7 53.3 284.2ZM53.3 282.4V272.6C50.5 273.7 48.7 274.5 47.8 275C46.3 275.8 45.3 276.7 44.6 277.6C44 278.5 43.6 279.5 43.6 280.5C43.6 281.8 44 283 44.8 283.8C45.6 284.7 46.5 285.1 47.6 285.1C49.1 285.2 51 284.3 53.3 282.4Z" fill="#615258"/>
<path d="M67.3 262.3H90.2V263.4C88.9 263.4 88.1 263.5 87.7 263.8C87.3 264.1 86.9 264.4 86.7 264.7C86.5 265.1 86.3 266.3 86.3 268.3V281.9C86.3 283.9 86.4 285.1 86.6 285.4C86.8 285.8 87.1 286.1 87.6 286.4C88 286.7 88.9 286.8 90.2 286.8V287.8H77V286.8C78.4 286.8 79.4 286.7 80 286.6C80.5 286.5 81 286.1 81.3 285.5C81.6 284.9 81.8 283.7 81.8 281.8V264H73.3V274.8C73.3 278.9 73.1 281.7 72.8 283.4C72.4 285 71.7 286.3 70.6 287.1C69.5 287.9 68.3 288.3 66.9 288.3C64.5 288.3 63.3 287.3 63.3 285.3C63.3 284.6 63.5 284.1 63.9 283.7C64.3 283.3 64.8 283.1 65.4 283.1C66.1 283.1 66.7 283.4 67.2 283.9C67.9 284.6 68.5 285 68.8 285C69.6 285 70.2 284.3 70.6 282.9C71 281.5 71.2 279 71.2 275.5V269.9C71.2 267 71 265.2 70.6 264.6C70.2 264 69.1 263.6 67.4 263.5V262.3H67.3Z" fill="#615258"/>
<path d="M105.8 261.5C109.7 261.5 112.8 263 115.1 265.9C117.1 268.4 118.1 271.3 118.1 274.6C118.1 276.9 117.5 279.2 116.4 281.6C115.3 283.9 113.8 285.7 111.9 286.9C110 288.1 107.8 288.7 105.5 288.7C101.6 288.7 98.6 287.2 96.3 284.1C94.4 281.5 93.4 278.6 93.4 275.4C93.4 273.1 94 270.7 95.1 268.4C96.3 266.1 97.8 264.4 99.7 263.3C101.7 262.1 103.7 261.5 105.8 261.5ZM104.9 263.4C103.9 263.4 102.9 263.7 101.9 264.3C100.9 264.9 100.1 265.9 99.5 267.4C98.9 268.9 98.6 270.8 98.6 273.1C98.6 276.8 99.3 280 100.8 282.7C102.3 285.4 104.2 286.8 106.7 286.8C108.5 286.8 110 286.1 111.2 284.6C112.4 283.1 113 280.5 113 276.9C113 272.4 112 268.8 110.1 266.2C108.7 264.3 107 263.4 104.9 263.4Z" fill="#615258"/>
<path d="M129.9 273.7H141V268.3C141 266.7 140.9 265.6 140.8 265.1C140.7 264.6 140.3 264.2 139.8 263.8C139.3 263.5 138.4 263.3 137.1 263.3V262.2H149.5V263.3C148.3 263.3 147.5 263.4 147 263.7C146.5 264 146.1 264.3 145.9 264.8C145.7 265.3 145.6 266.4 145.6 268.2V281.8C145.6 283.4 145.7 284.5 145.8 285C145.9 285.5 146.3 285.9 146.8 286.3C147.3 286.6 148.2 286.8 149.5 286.8V287.8H137.1V286.8C138.6 286.8 139.7 286.5 140.2 285.9C140.7 285.3 141 284 141 281.8V275.5H129.9V281.8C129.9 283.4 130 284.5 130.1 285C130.2 285.5 130.6 285.9 131.1 286.3C131.6 286.6 132.5 286.8 133.8 286.8V287.8H121.4V286.8C123.1 286.8 124.1 286.5 124.6 285.9C125.1 285.3 125.3 283.9 125.3 281.8V268.2C125.3 266.6 125.2 265.5 125.1 265C125 264.5 124.6 264.1 124.1 263.7C123.6 263.4 122.7 263.2 121.4 263.2V262.1H133.8V263.2C132.6 263.2 131.8 263.3 131.3 263.6C130.8 263.9 130.4 264.2 130.2 264.7C130 265.2 129.9 266.3 129.9 268.1V273.7V273.7Z" fill="#615258"/>
<path d="M207.9 286.9V287.9H166.4V286.9C167.9 286.9 169 286.6 169.5 286C170 285.4 170.3 284.1 170.3 281.9V268.3C170.3 266.3 170.2 265.1 170 264.8C169.8 264.4 169.5 264.1 169 263.8C168.6 263.5 167.7 263.4 166.4 263.4V262.3H178.8V263.4C177.6 263.4 176.7 263.5 176.3 263.8C175.9 264.1 175.5 264.4 175.3 264.7C175.1 265.1 174.9 266.3 174.9 268.3V282.4C174.9 284.2 175.1 285.2 175.4 285.6C175.7 285.9 176.8 286.1 178.6 286.1H181.6C182.8 286.1 183.6 286 183.9 285.9C184.3 285.8 184.5 285.5 184.6 285.2C184.7 284.9 184.8 283.8 184.8 281.9V268.3C184.8 266.3 184.7 265.1 184.5 264.8C184.3 264.4 184 264.1 183.5 263.8C183.1 263.5 182.2 263.4 180.9 263.4V262.3H192.8V263.4C191.8 263.4 191 263.6 190.6 263.9C190.1 264.2 189.8 264.6 189.6 265.1C189.5 265.6 189.4 266.7 189.4 268.3V282.8C189.4 284.4 189.6 285.4 189.9 285.7C190.2 286 191.2 286.2 192.8 286.2H196.2C198 286.2 199 286 199.1 285.6C199.2 285.2 199.4 284.1 199.4 282.1V268.4C199.4 266.4 199.3 265.2 199.1 264.9C198.9 264.5 198.6 264.2 198.1 263.9C197.7 263.6 196.8 263.5 195.5 263.5V262.4H207.9V263.5C206.6 263.5 205.8 263.6 205.4 263.9C205 264.2 204.6 264.5 204.4 264.8C204.2 265.2 204 266.4 204 268.4V280.5C204 283 204.1 284.5 204.2 285.1C204.3 285.7 204.7 286.1 205.2 286.4C205.7 286.7 206.6 286.8 207.9 286.9Z" fill="#615258"/>
<path d="M210.6 262.3H232.7L233.8 269.2H232.5C232.3 267.8 231.9 266.7 231.4 266C230.9 265.2 230.3 264.7 229.6 264.5C228.9 264.3 227.8 264.1 226.2 264.1H224V281.9C224 283.8 224.1 285 224.3 285.5C224.5 286 224.9 286.4 225.4 286.5C225.9 286.7 227.1 286.8 229 286.8V287.8H215.1V286.8C216.9 286.8 218 286.5 218.6 285.9C219.1 285.4 219.4 284 219.4 281.8V264H217.1C215.5 264 214.4 264.1 213.8 264.3C213.2 264.5 212.7 265 212.1 265.7C211.5 266.4 211.1 267.6 210.7 269.1H209.4L210.6 262.3Z" fill="#615258"/>
<path d="M247.8 261.5C251.7 261.5 254.8 263 257.1 265.9C259.1 268.4 260.1 271.3 260.1 274.6C260.1 276.9 259.5 279.2 258.4 281.6C257.3 283.9 255.8 285.7 253.9 286.9C252 288.1 249.8 288.7 247.5 288.7C243.6 288.7 240.6 287.2 238.3 284.1C236.4 281.5 235.4 278.6 235.4 275.4C235.4 273.1 236 270.7 237.1 268.4C238.3 266.1 239.8 264.4 241.7 263.3C243.6 262.1 245.6 261.5 247.8 261.5ZM246.9 263.4C245.9 263.4 244.9 263.7 243.9 264.3C242.9 264.9 242.1 265.9 241.5 267.4C240.9 268.9 240.6 270.8 240.6 273.1C240.6 276.8 241.3 280 242.8 282.7C244.3 285.4 246.2 286.8 248.7 286.8C250.5 286.8 252 286.1 253.2 284.6C254.4 283.1 255 280.5 255 276.9C255 272.4 254 268.8 252.1 266.2C250.6 264.3 249 263.4 246.9 263.4Z" fill="#615258"/>
<path d="M262 264.8L269.9 261.6H271V267.6C272.3 265.3 273.7 263.8 275 262.9C276.3 262 277.7 261.5 279.2 261.5C281.8 261.5 283.9 262.5 285.6 264.5C287.7 267 288.8 270.2 288.8 274.1C288.8 278.5 287.5 282.2 285 285.1C282.9 287.5 280.3 288.7 277.1 288.7C275.7 288.7 274.5 288.5 273.5 288.1C272.8 287.8 271.9 287.3 271 286.4V294.2C271 296 271.1 297.1 271.3 297.5C271.5 298 271.9 298.4 272.4 298.6C272.9 298.9 273.9 299 275.3 299V300H261.9V299H262.6C263.6 299 264.5 298.8 265.2 298.4C265.6 298.2 265.8 297.9 266 297.4C266.2 296.9 266.3 295.8 266.3 293.9V269.7C266.3 268 266.2 267 266.1 266.5C266 266.1 265.7 265.7 265.4 265.5C265.1 265.3 264.6 265.2 264.1 265.2C263.7 265.2 263.1 265.3 262.4 265.6L262 264.8ZM271 269.3V278.9C271 281 271.1 282.3 271.3 283C271.6 284.1 272.2 285 273.2 285.9C274.2 286.7 275.5 287.1 277 287.1C278.9 287.1 280.4 286.4 281.5 284.9C283 283 283.8 280.3 283.8 276.9C283.8 273 282.9 270 281.2 267.9C280 266.4 278.6 265.7 276.9 265.7C276 265.7 275.1 265.9 274.2 266.4C273.6 266.6 272.5 267.6 271 269.3Z" fill="#615258"/>
<path d="M314.8 280L325.9 267.2C325.9 265.8 325.6 264.8 325.1 264.2C324.6 263.6 323.7 263.4 322.5 263.3V262.2H334.4V263.3C333.2 263.3 332.3 263.4 331.9 263.7C331.5 264 331.1 264.3 330.9 264.6C330.7 265 330.5 266.2 330.5 268.2V281.8C330.5 283.8 330.6 285 330.8 285.3C331 285.7 331.3 286 331.8 286.3C332.2 286.6 333.1 286.7 334.4 286.7V287.7H322V286.7C323.5 286.7 324.6 286.4 325.1 285.8C325.6 285.2 325.9 283.9 325.9 281.7V269.6L314.8 282.4C314.8 284 315.1 285.1 315.5 285.7C315.9 286.3 316.8 286.6 318.2 286.6V287.6H306.4V286.6C308.1 286.6 309.1 286.3 309.6 285.7C310.1 285.1 310.3 283.7 310.3 281.6V268C310.3 266 310.2 264.8 310 264.5C309.8 264.1 309.5 263.8 309 263.5C308.6 263.2 307.7 263.1 306.4 263.1V262H318.8V263.1C317.6 263.1 316.7 263.2 316.3 263.5C315.9 263.8 315.5 264.1 315.3 264.4C315.1 264.8 314.9 266 314.9 268V280H314.8Z" fill="#615258"/>
<path d="M351.4 262.3H373.5L374.6 269.2H373.3C373.1 267.8 372.7 266.7 372.2 266C371.7 265.2 371.1 264.7 370.4 264.5C369.7 264.3 368.6 264.1 367 264.1H364.8V281.9C364.8 283.8 364.9 285 365.1 285.5C365.3 286 365.7 286.4 366.2 286.5C366.7 286.7 367.9 286.8 369.8 286.8V287.8H356V286.8C357.8 286.8 358.9 286.5 359.5 285.9C360 285.4 360.3 284 360.3 281.8V264H358C356.4 264 355.3 264.1 354.7 264.3C354.1 264.5 353.6 265 353 265.7C352.5 266.4 352 267.6 351.6 269.1H350.3L351.4 262.3Z" fill="#615258"/>
<path d="M381.1 271.9C381.1 275.7 382 278.7 383.9 280.8C385.8 283 388 284 390.5 284C392.2 284 393.6 283.5 394.9 282.6C396.1 281.7 397.2 280.1 398 277.9L398.9 278.5C398.5 281.1 397.4 283.4 395.5 285.5C393.6 287.6 391.3 288.6 388.4 288.6C385.3 288.6 382.7 287.4 380.5 285C378.3 282.6 377.2 279.4 377.2 275.3C377.2 270.9 378.3 267.5 380.6 265.1C382.8 262.6 385.7 261.4 389.1 261.4C392 261.4 394.3 262.3 396.2 264.2C398 266.1 399 268.6 399 271.8H381.1V271.9ZM381.1 270.3H393C392.9 268.7 392.7 267.5 392.4 266.8C391.9 265.8 391.2 264.9 390.3 264.3C389.4 263.7 388.4 263.4 387.4 263.4C385.9 263.4 384.5 264 383.2 265.2C381.9 266.4 381.3 268.2 381.1 270.3Z" fill="#615258"/>
<path d="M427.9 287.9H420.3C418 284.5 415.8 281 413.9 277.4C413.5 276.6 413 276 412.7 275.6C412.3 275.2 411.8 275 411.2 275C411 275 410.6 275 410.1 275.1V282C410.1 283.8 410.2 285 410.4 285.5C410.6 286 411 286.4 411.6 286.6C412.2 286.8 413.1 286.9 414.4 286.9V287.9H401.6V286.9C403.3 286.9 404.3 286.6 404.8 286C405.3 285.4 405.5 284 405.5 281.9V268.3C405.5 266.3 405.4 265.1 405.2 264.8C405 264.4 404.7 264.1 404.2 263.8C403.8 263.5 402.9 263.4 401.6 263.4V262.3H414.4V263.4C412.9 263.4 411.9 263.5 411.5 263.7C411.1 263.9 410.8 264.2 410.5 264.5C410.2 264.8 410.1 266.1 410.1 268.3V273.3C410.5 273.3 410.8 273.4 411 273.4C412.1 273.4 413.2 273.1 414.2 272.4C415.2 271.8 416.1 270.4 416.9 268.3C417.6 266.3 418.2 265 418.7 264.3C419.2 263.6 419.8 263 420.7 262.6C421.5 262.2 422.4 261.9 423.4 261.9C424.4 261.9 425.2 262.1 425.8 262.6C426.4 263.1 426.7 263.7 426.7 264.5C426.7 265.2 426.5 265.7 426.1 266.2C425.7 266.7 425.1 266.9 424.3 266.9C423.9 266.9 423.4 266.8 422.8 266.6C422 266.3 421.4 266.2 421 266.2C420.1 266.2 419.4 266.9 418.9 268.4C418.3 270.1 417.8 271.2 417.5 271.7C417.2 272.2 416.6 272.9 415.8 273.7C416.4 273.9 417 274.3 417.7 275C418.4 275.7 419.6 277.7 421.5 280.9C423 283.5 424.1 285.1 424.8 285.8C425.5 286.5 426.6 286.9 428 286.9V287.9H427.9Z" fill="#615258"/>
<path d="M450.4 278.2C449.7 281.6 448.4 284.2 446.3 286C444.2 287.8 442.1 288.7 439.6 288.7C436.7 288.7 434.2 287.5 432 285C429.8 282.6 428.8 279.3 428.8 275.1C428.8 271.1 430 267.8 432.4 265.3C434.8 262.8 437.7 261.5 441 261.5C443.5 261.5 445.6 262.2 447.2 263.5C448.8 264.8 449.6 266.2 449.6 267.7C449.6 268.4 449.4 269 448.9 269.4C448.4 269.8 447.8 270.1 447 270.1C445.9 270.1 445.1 269.7 444.5 269C444.2 268.6 444 267.9 443.9 266.8C443.8 265.7 443.4 264.9 442.8 264.3C442.1 263.7 441.2 263.5 440.1 263.5C438.2 263.5 436.7 264.2 435.6 265.6C434.1 267.4 433.3 269.8 433.3 272.8C433.3 275.9 434 278.6 435.6 280.9C437.1 283.2 439.1 284.4 441.7 284.4C443.5 284.4 445.2 283.8 446.6 282.5C447.6 281.6 448.6 280.1 449.6 277.8L450.4 278.2Z" fill="#615258"/>
<path d="M453.7 262.3H475.8L476.9 269.2H475.6C475.4 267.8 475 266.7 474.5 266C474 265.2 473.4 264.7 472.7 264.5C472 264.3 470.9 264.1 469.3 264.1H467.1V281.9C467.1 283.8 467.2 285 467.4 285.5C467.6 286 468 286.4 468.5 286.5C469 286.7 470.2 286.8 472.1 286.8V287.8H458.2V286.8C460 286.8 461.1 286.5 461.7 285.9C462.2 285.4 462.5 284 462.5 281.8V264H460.2C458.6 264 457.5 264.1 456.9 264.3C456.3 264.5 455.8 265 455.2 265.7C454.7 266.4 454.2 267.6 453.8 269.1H452.5L453.7 262.3Z" fill="#615258"/>
<path d="M487.1 280L498.2 267.2C498.2 265.8 497.9 264.8 497.4 264.2C496.9 263.6 496 263.4 494.8 263.3V262.2H506.7V263.3C505.5 263.3 504.6 263.4 504.2 263.7C503.8 264 503.4 264.3 503.2 264.6C503 265 502.8 266.2 502.8 268.2V281.8C502.8 283.8 502.9 285 503.1 285.3C503.3 285.7 503.6 286 504.1 286.3C504.5 286.6 505.4 286.7 506.7 286.7V287.7H494.3V286.7C495.8 286.7 496.9 286.4 497.4 285.8C497.9 285.2 498.2 283.9 498.2 281.7V269.6L487.1 282.4C487.1 284 487.4 285.1 487.8 285.7C488.2 286.3 489.1 286.6 490.5 286.6V287.6H478.7V286.6C480.4 286.6 481.4 286.3 481.9 285.7C482.4 285.1 482.6 283.7 482.6 281.6V268C482.6 266 482.5 264.8 482.3 264.5C482.1 264.1 481.8 263.8 481.3 263.5C480.9 263.2 480 263.1 478.7 263.1V262H491V263.1C489.8 263.1 488.9 263.2 488.5 263.5C488.1 263.8 487.7 264.1 487.5 264.4C487.3 264.8 487.1 266 487.1 268V280Z" fill="#615258"/>
<path d="M512.4 262.3H535.3V263.4C534 263.4 533.2 263.5 532.8 263.8C532.4 264.1 532 264.4 531.8 264.7C531.6 265.1 531.4 266.3 531.4 268.3V281.9C531.4 283.9 531.5 285.1 531.7 285.4C531.9 285.8 532.2 286.1 532.7 286.4C533.1 286.7 534 286.8 535.3 286.8V287.8H522V286.8C523.4 286.8 524.4 286.7 525 286.6C525.6 286.5 526 286.1 526.3 285.5C526.6 284.9 526.8 283.7 526.8 281.8V264H518.3V274.8C518.3 278.9 518.1 281.7 517.8 283.4C517.4 285 516.7 286.3 515.6 287.1C514.5 287.9 513.3 288.3 511.9 288.3C509.5 288.3 508.3 287.3 508.3 285.3C508.3 284.6 508.5 284.1 508.9 283.7C509.3 283.3 509.8 283.1 510.4 283.1C511.1 283.1 511.7 283.4 512.2 283.9C512.9 284.6 513.5 285 513.8 285C514.6 285 515.3 284.3 515.6 282.9C516 281.5 516.2 279 516.2 275.5V269.9C516.2 267 516 265.2 515.6 264.6C515.2 264 514.1 263.6 512.4 263.5V262.3V262.3Z" fill="#615258"/>
<path d="M546.3 273.7L549.5 273.6C557.1 273.6 560.9 275.9 560.9 280.6C560.9 282.8 560 284.5 558.1 285.8C556.2 287.1 553.6 287.8 550.1 287.8H537.8V286.8C539.5 286.8 540.5 286.5 541 285.9C541.5 285.3 541.7 283.9 541.7 281.8V268.2C541.7 266.2 541.6 265 541.4 264.7C541.2 264.3 540.9 264 540.4 263.7C540 263.4 539.1 263.3 537.8 263.3V262.2H551.2V263.3C549.4 263.3 548.2 263.4 547.8 263.6C547.4 263.8 547 264.1 546.7 264.4C546.4 264.7 546.3 266 546.3 268.2V273.7V273.7ZM546.3 285.7C547.3 286 548.3 286.1 549.3 286.1C551.2 286.1 552.7 285.6 553.8 284.6C555 283.6 555.5 282.4 555.5 280.9C555.5 277.3 553 275.5 548 275.5C547.6 275.5 547 275.5 546.2 275.5V285.7H546.3Z" fill="#615258"/>
<path d="M572.4 273.7H583.5V268.3C583.5 266.7 583.4 265.6 583.3 265.1C583.2 264.6 582.8 264.2 582.3 263.8C581.8 263.5 580.9 263.3 579.6 263.3V262.2H592V263.3C590.8 263.3 590 263.4 589.5 263.7C589 264 588.6 264.3 588.4 264.8C588.2 265.3 588.1 266.4 588.1 268.2V281.8C588.1 283.4 588.2 284.5 588.3 285C588.4 285.5 588.8 285.9 589.3 286.3C589.8 286.6 590.7 286.8 592 286.8V287.8H579.6V286.8C581.1 286.8 582.2 286.5 582.7 285.9C583.2 285.3 583.5 284 583.5 281.8V275.5H572.4V281.8C572.4 283.4 572.5 284.5 572.6 285C572.7 285.5 573.1 285.9 573.6 286.3C574.1 286.6 575 286.8 576.3 286.8V287.8H563.9V286.8C565.6 286.8 566.6 286.5 567.1 285.9C567.6 285.3 567.8 283.9 567.8 281.8V268.2C567.8 266.6 567.7 265.5 567.6 265C567.5 264.5 567.1 264.1 566.6 263.7C566.1 263.4 565.2 263.2 563.9 263.2V262.1H576.3V263.2C575.1 263.2 574.3 263.3 573.8 263.6C573.3 263.9 572.9 264.2 572.7 264.7C572.5 265.2 572.4 266.3 572.4 268.1V273.7V273.7Z" fill="#615258"/>
<path d="M607.6 261.5C611.5 261.5 614.6 263 616.9 265.9C618.9 268.4 619.9 271.3 619.9 274.6C619.9 276.9 619.3 279.2 618.3 281.6C617.2 283.9 615.7 285.7 613.8 286.9C611.9 288.1 609.7 288.7 607.4 288.7C603.5 288.7 600.5 287.2 598.2 284.1C596.3 281.5 595.3 278.6 595.3 275.4C595.3 273.1 595.9 270.7 597 268.4C598.2 266.1 599.7 264.4 601.6 263.3C603.5 262.1 605.5 261.5 607.6 261.5ZM606.8 263.4C605.8 263.4 604.8 263.7 603.8 264.3C602.8 264.9 602 265.9 601.4 267.4C600.8 268.9 600.5 270.8 600.5 273.1C600.5 276.8 601.2 280 602.7 282.7C604.2 285.4 606.1 286.8 608.6 286.8C610.4 286.8 611.9 286.1 613.1 284.6C614.3 283.1 614.9 280.5 614.9 276.9C614.9 272.4 613.9 268.8 612 266.2C610.5 264.3 608.8 263.4 606.8 263.4Z" fill="#615258"/>
<path d="M644 262.3L645 269.3H643.8C643.1 267 642.4 265.5 641.7 265C641 264.4 639.5 264.1 637.2 264.1H631.8V281.9C631.8 283.9 631.9 285.1 632.1 285.4C632.3 285.8 632.6 286.1 633.1 286.4C633.5 286.7 634.4 286.8 635.7 286.8V287.8H622.9V286.8C624.7 286.8 625.9 286.5 626.4 285.9C626.9 285.4 627.2 284 627.2 281.8V268.2C627.2 266.4 627.1 265.2 626.9 264.7C626.7 264.2 626.3 263.8 625.8 263.6C625.3 263.4 624.3 263.3 622.9 263.2V262.1H644V262.3Z" fill="#615258"/>
<path d="M658.3 261.5C662.2 261.5 665.3 263 667.6 265.9C669.6 268.4 670.6 271.3 670.6 274.6C670.6 276.9 670 279.2 669 281.6C667.9 283.9 666.4 285.7 664.5 286.9C662.6 288.1 660.4 288.7 658.1 288.7C654.2 288.7 651.2 287.2 648.9 284.1C647 281.5 646 278.6 646 275.4C646 273.1 646.6 270.7 647.7 268.4C648.9 266.1 650.4 264.4 652.3 263.3C654.2 262.1 656.2 261.5 658.3 261.5ZM657.5 263.4C656.5 263.4 655.5 263.7 654.5 264.3C653.5 264.9 652.7 265.9 652.1 267.4C651.5 268.9 651.2 270.8 651.2 273.1C651.2 276.8 651.9 280 653.4 282.7C654.9 285.4 656.8 286.8 659.3 286.8C661.1 286.8 662.6 286.1 663.8 284.6C665 283.1 665.6 280.5 665.6 276.9C665.6 272.4 664.6 268.8 662.7 266.2C661.2 264.3 659.5 263.4 657.5 263.4Z" fill="#615258"/>
<path d="M692.2 262.3H714.8V263.4C713.5 263.4 712.7 263.5 712.3 263.8C711.9 264.1 711.6 264.4 711.3 264.7C711.1 265.1 710.9 266.3 710.9 268.3V281C710.9 283.7 711.1 285.3 711.6 285.9C712.1 286.5 713.1 286.8 714.8 286.9V295H713.7C713.6 293.5 713.2 292.1 712.6 291C711.9 289.9 711 289.1 709.8 288.6C708.6 288.1 706.8 287.9 704.4 287.9H697.8C695.7 287.9 694.1 288.1 693 288.4C691.8 288.8 690.9 289.5 690.1 290.7C689.3 291.9 688.9 293.3 688.7 295H687.7V286.9C689.2 286.8 690.6 286.2 691.9 285.1C693.1 283.9 694.2 281.7 695.2 278.3C696.2 274.9 696.6 271.6 696.6 268.3C696.6 265.1 695.2 263.4 692.3 263.4V262.3H692.2ZM698.4 264.1V265.6C698.4 274.8 696.7 281.6 693.4 286H702.9C704.6 286 705.6 285.9 705.9 285.6C706.2 285.3 706.3 284.2 706.3 282.4V264.1H698.4Z" fill="#615258"/>
<path d="M722.2 271.9C722.2 275.7 723.1 278.7 725 280.8C726.9 282.9 729.1 284 731.6 284C733.3 284 734.7 283.5 736 282.6C737.3 281.7 738.3 280.1 739.1 277.9L740 278.5C739.6 281.1 738.5 283.4 736.6 285.5C734.7 287.6 732.4 288.6 729.5 288.6C726.4 288.6 723.8 287.4 721.6 285C719.4 282.6 718.3 279.4 718.3 275.3C718.3 270.9 719.4 267.5 721.7 265.1C723.9 262.6 726.8 261.4 730.2 261.4C733.1 261.4 735.4 262.3 737.3 264.2C739.1 266.1 740.1 268.6 740.1 271.8H722.2V271.9ZM722.2 270.3H734.1C734 268.7 733.8 267.5 733.5 266.8C733 265.8 732.3 264.9 731.4 264.3C730.5 263.7 729.5 263.4 728.5 263.4C727 263.4 725.6 264 724.3 265.2C723.1 266.5 722.4 268.2 722.2 270.3Z" fill="#615258"/>
<path d="M769 287.9H761.4C759.1 284.5 756.9 281 755 277.4C754.6 276.6 754.1 276 753.8 275.6C753.4 275.2 752.9 275 752.3 275C752.1 275 751.7 275 751.2 275.1V282C751.2 283.8 751.3 285 751.5 285.5C751.7 286 752.1 286.4 752.7 286.6C753.3 286.8 754.2 286.9 755.5 286.9V287.9H742.7V286.9C744.4 286.9 745.4 286.6 745.9 286C746.4 285.4 746.6 284 746.6 281.9V268.3C746.6 266.3 746.5 265.1 746.3 264.8C746.1 264.4 745.8 264.1 745.3 263.8C744.9 263.5 744 263.4 742.7 263.4V262.3H755.5V263.4C754 263.4 753 263.5 752.6 263.7C752.2 263.9 751.9 264.2 751.6 264.5C751.3 264.8 751.2 266.1 751.2 268.3V273.3C751.6 273.3 751.9 273.4 752.1 273.4C753.2 273.4 754.3 273.1 755.3 272.4C756.3 271.8 757.2 270.4 758 268.3C758.7 266.3 759.3 265 759.8 264.3C760.3 263.6 760.9 263 761.8 262.6C762.6 262.2 763.5 261.9 764.5 261.9C765.5 261.9 766.3 262.1 766.9 262.6C767.5 263.1 767.8 263.7 767.8 264.5C767.8 265.2 767.6 265.7 767.2 266.2C766.8 266.7 766.2 266.9 765.4 266.9C765 266.9 764.5 266.8 763.9 266.6C763.1 266.3 762.5 266.2 762.1 266.2C761.2 266.2 760.5 266.9 760 268.4C759.4 270.1 758.9 271.2 758.6 271.7C758.3 272.2 757.7 272.9 756.9 273.7C757.5 273.9 758.1 274.3 758.8 275C759.5 275.7 760.7 277.7 762.6 280.9C764.1 283.5 765.2 285.1 765.9 285.8C766.6 286.5 767.7 286.9 769.1 286.9V287.9H769Z" fill="#615258"/>
<path d="M780.8 261.5C784.7 261.5 787.8 263 790.1 265.9C792.1 268.4 793.1 271.3 793.1 274.6C793.1 276.9 792.5 279.2 791.5 281.6C790.4 283.9 788.9 285.7 787 286.9C785.1 288.1 782.9 288.7 780.6 288.7C776.7 288.7 773.7 287.2 771.4 284.1C769.5 281.5 768.5 278.6 768.5 275.4C768.5 273.1 769.1 270.7 770.2 268.4C771.4 266.1 772.9 264.4 774.8 263.3C776.6 262.1 778.6 261.5 780.8 261.5ZM779.9 263.4C778.9 263.4 777.9 263.7 776.9 264.3C775.9 264.9 775.1 265.9 774.5 267.4C773.9 268.9 773.6 270.8 773.6 273.1C773.6 276.8 774.3 280 775.8 282.7C777.3 285.4 779.2 286.8 781.7 286.8C783.5 286.8 785 286.1 786.2 284.6C787.4 283.1 788 280.5 788 276.9C788 272.4 787 268.8 785.1 266.2C783.6 264.3 781.9 263.4 779.9 263.4Z" fill="#615258"/>
<path d="M795 264.8L802.9 261.6H804V267.6C805.3 265.3 806.7 263.8 808 262.9C809.3 262 810.7 261.5 812.2 261.5C814.8 261.5 816.9 262.5 818.6 264.5C820.7 267 821.8 270.2 821.8 274.1C821.8 278.5 820.5 282.2 818 285.1C815.9 287.5 813.3 288.7 810.1 288.7C808.7 288.7 807.5 288.5 806.5 288.1C805.8 287.8 804.9 287.3 804 286.4V294.2C804 296 804.1 297.1 804.3 297.5C804.5 298 804.9 298.4 805.4 298.6C805.9 298.9 806.9 299 808.3 299V300H794.9V299H795.6C796.6 299 797.5 298.8 798.2 298.4C798.6 298.2 798.8 297.9 799 297.4C799.2 296.9 799.3 295.8 799.3 293.9V269.7C799.3 268 799.2 267 799.1 266.5C798.9 266.1 798.7 265.7 798.4 265.5C798.1 265.3 797.6 265.2 797.1 265.2C796.7 265.2 796.1 265.3 795.4 265.6L795 264.8ZM804 269.3V278.9C804 281 804.1 282.3 804.3 283C804.6 284.1 805.2 285 806.2 285.9C807.2 286.7 808.5 287.1 810 287.1C811.9 287.1 813.4 286.4 814.5 284.9C816 283 816.8 280.3 816.8 276.9C816.8 273 815.9 270 814.2 267.9C813 266.4 811.6 265.7 809.9 265.7C809 265.7 808.1 265.9 807.2 266.4C806.6 266.6 805.5 267.6 804 269.3Z" fill="#615258"/>
<path d="M840 284.2C837.4 286.2 835.7 287.4 835.1 287.7C834.1 288.2 833 288.4 831.9 288.4C830.1 288.4 828.7 287.8 827.5 286.6C826.4 285.4 825.8 283.8 825.8 281.8C825.8 280.6 826.1 279.5 826.6 278.6C827.4 277.3 828.7 276.1 830.6 275C832.5 273.9 835.6 272.5 840 270.9V269.9C840 267.3 839.6 265.6 838.8 264.6C838 263.6 836.8 263.2 835.3 263.2C834.1 263.2 833.2 263.5 832.5 264.2C831.8 264.8 831.4 265.6 831.4 266.4L831.5 268C831.5 268.9 831.3 269.5 830.8 270C830.3 270.5 829.8 270.7 829.1 270.7C828.4 270.7 827.8 270.5 827.4 270C827 269.5 826.7 268.9 826.7 268C826.7 266.4 827.5 264.9 829.2 263.6C830.8 262.3 833.1 261.6 836.1 261.6C838.4 261.6 840.2 262 841.7 262.7C842.8 263.3 843.6 264.2 844.1 265.4C844.4 266.2 844.6 267.8 844.6 270.3V279C844.6 281.4 844.6 282.9 844.7 283.5C844.8 284.1 844.9 284.4 845.2 284.6C845.4 284.8 845.7 284.9 845.9 284.9C846.2 284.9 846.5 284.8 846.7 284.7C847.1 284.5 847.8 283.8 849 282.7V284.3C846.9 287.1 844.9 288.5 843 288.5C842.1 288.5 841.4 288.2 840.8 287.5C840.3 286.8 840 285.7 840 284.2ZM840 282.4V272.6C837.2 273.7 835.4 274.5 834.5 275C833 275.8 832 276.7 831.3 277.6C830.7 278.5 830.3 279.5 830.3 280.5C830.3 281.8 830.7 283 831.5 283.8C832.3 284.7 833.2 285.1 834.3 285.1C835.8 285.2 837.7 284.3 840 282.4Z" fill="#615258"/>
</svg>
