<svg width="18" height="30" viewBox="0 0 18 30" fill="none" xmlns="http://www.w3.org/2000/svg">
<path d="M11.6142 21.7558L16.557 13.8081C16.5731 13.7824 16.5867 13.7553 16.5972 13.7273C17.4507 12.3354 17.9014 10.7454 17.9014 9.12215C17.9014 4.25226 13.9394 0.290283 9.06952 0.290283C4.19963 0.290283 0.237323 4.25226 0.237323 9.12215C0.237323 10.7458 0.688642 12.3364 1.54282 13.7293C1.55271 13.7537 1.56425 13.7774 1.57809 13.8005L6.34348 21.7756C2.64425 22.2984 0.211609 23.8195 0.211609 25.6647C0.211609 27.9509 4.09677 29.7414 9.05633 29.7414C14.0159 29.7414 17.9011 27.9506 17.9011 25.6647C17.9014 23.8109 15.3553 22.2559 11.6142 21.7558ZM2.43062 13.2839C1.64271 12.0298 1.22633 10.5908 1.22633 9.12215C1.22633 4.79754 4.74458 1.27929 9.06952 1.27929C13.3941 1.27929 16.9124 4.79754 16.9124 9.12215C16.9124 10.5915 16.496 12.0305 15.7084 13.2839C15.6919 13.3103 15.6784 13.3376 15.6675 13.366L10.4456 21.7617C10.3671 21.882 10.3516 21.9094 10.2557 22.067L8.93699 24.1874L2.4748 13.3729C2.46326 13.3423 2.44842 13.3123 2.43062 13.2839ZM9.05666 28.7524C4.4271 28.7524 1.20095 27.1248 1.20095 25.6647C1.20095 24.3394 3.63062 23.0906 6.89864 22.7039L8.50414 25.3911C8.59282 25.5391 8.75172 25.6304 8.92414 25.6317C8.92545 25.6317 8.9271 25.6317 8.92842 25.6317C9.09919 25.6317 9.25809 25.5434 9.34842 25.3983L11.0363 22.6845C14.3564 23.0441 16.912 24.3246 16.912 25.6647C16.9124 27.1251 13.6862 28.7524 9.05666 28.7524Z" fill="#F0EADE"/>
<path d="M12.268 9.12221C12.268 7.35155 10.8273 5.91089 9.05666 5.91089C7.286 5.91089 5.84534 7.35155 5.84534 9.12221C5.84534 10.8929 7.286 12.3335 9.05666 12.3335C10.8273 12.3335 12.268 10.8929 12.268 9.12221ZM6.83435 9.12221C6.83435 7.89682 7.83127 6.8999 9.05666 6.8999C10.282 6.8999 11.279 7.89682 11.279 9.12221C11.279 10.3476 10.2824 11.3445 9.05666 11.3445C7.83094 11.3445 6.83435 10.3476 6.83435 9.12221Z" fill="#F0EADE"/>
</svg>
