<svg width="25" height="25" viewBox="0 0 25 25" fill="none" xmlns="http://www.w3.org/2000/svg">
<path d="M8 1.5C4.41624 1.5 1.5 4.41625 1.5 8V17C1.5 20.5838 4.41624 23.5 8 23.5H17C20.5838 23.5 23.5 20.5838 23.5 17V8C23.5 4.41625 20.5838 1.5 17 1.5H8ZM8 2.5H17C20.0432 2.5 22.5 4.95676 22.5 8V17C22.5 20.0432 20.0432 22.5 17 22.5H8C4.95676 22.5 2.5 20.0432 2.5 17V8C2.5 4.95676 4.95676 2.5 8 2.5ZM18.5 5.5C18.2348 5.5 17.9804 5.60536 17.7929 5.7929C17.6054 5.98043 17.5 6.23479 17.5 6.5C17.5 6.76522 17.6054 7.01957 17.7929 7.20711C17.9804 7.39465 18.2348 7.5 18.5 7.5C18.7652 7.5 19.0196 7.39465 19.2071 7.20711C19.3946 7.01957 19.5 6.76522 19.5 6.5C19.5 6.23479 19.3946 5.98043 19.2071 5.7929C19.0196 5.60536 18.7652 5.5 18.5 5.5ZM12.5 7C9.46836 7 7 9.46836 7 12.5C7 15.5316 9.46836 18 12.5 18C15.5316 18 18 15.5316 18 12.5C18 9.46836 15.5316 7 12.5 7ZM12.5 8C14.9912 8 17 10.0088 17 12.5C17 14.9912 14.9912 17 12.5 17C10.0088 17 8 14.9912 8 12.5C8 10.0088 10.0088 8 12.5 8Z" fill="#F0EADE"/>
</svg>
