<svg width="25" height="25" viewBox="0 0 25 25" fill="none" xmlns="http://www.w3.org/2000/svg">
<path d="M24.2484 19.3656L19.5609 16.2333C18.7807 15.7115 18.0292 15.7297 17.3792 16.2641C15.5542 17.7604 14.4719 17.3312 14.2958 17.2427C13.2635 16.726 12.2885 16.2385 10.7849 14.7359C8.91823 12.8682 8.24427 11.676 7.75781 10.7047C7.56354 10.3161 7.33958 9.0099 8.61719 7.64792C9.21458 7.01198 9.26979 6.23073 8.77292 5.44948C8.3901 4.8474 8.3901 4.8474 8.08906 4.40469C7.79219 3.96719 7.19896 3.09323 5.63437 0.751562C5.29635 0.246354 4.81615 0 4.16667 0C3.43021 0 3.05729 0.373437 2.75677 0.673437L1.19427 2.23594C0.0880208 3.34167 0 3.97552 0 4.6875C0 5.58385 1.29427 11.4266 7.44375 17.5547C13.5734 23.7052 19.4104 25 20.3062 25H20.3406C21.0464 24.9896 21.6734 24.8964 22.7635 23.8057L24.326 22.2432C24.6266 21.9432 25 21.5698 25 20.8333C25 20.1833 24.7536 19.7031 24.2484 19.3656ZM23.5901 21.5068L22.0276 23.0693C21.1505 23.9464 20.7693 23.9521 20.3062 23.9583C20.2422 23.9562 14.6339 23.2953 8.18021 16.8182C1.77865 10.4391 1.04271 4.7375 1.04167 4.6875C1.04167 4.22552 1.04167 3.86146 1.93021 2.9724L3.49271 1.4099C3.76719 1.13646 3.87656 1.04167 4.16667 1.04167C4.50677 1.04167 4.64948 1.1526 4.76875 1.33073C6.33594 3.67656 6.93021 4.5526 7.2276 4.98958C7.52083 5.42083 7.52083 5.42083 7.89427 6.00885C8.1901 6.47396 8.05156 6.72917 7.85781 6.93542C6.23229 8.66667 6.4724 10.462 6.82604 11.1703C7.34844 12.2151 8.07083 13.4948 10.0484 15.4724C11.6708 17.0948 12.7687 17.6432 13.8297 18.1745C14.1219 18.3198 14.5031 18.4005 14.9042 18.4005C15.5948 18.4005 16.6984 18.1698 18.0396 17.0698C18.2297 16.913 18.3651 16.8948 18.4505 16.8948C18.6 16.8948 18.7792 16.9641 18.9823 17.1005L23.6698 20.2318C23.8474 20.35 23.9583 20.4927 23.9583 20.8333C23.9583 21.1234 23.8635 21.2333 23.5901 21.5068Z" fill="#ECEEE3"/>
</svg>
