<svg width="25" height="25" viewBox="0 0 25 25" fill="none" xmlns="http://www.w3.org/2000/svg">
<path d="M12.5 22.6563C10.4913 22.6563 8.52768 22.0606 6.85749 20.9446C5.18731 19.8286 3.88556 18.2424 3.11685 16.3866C2.34815 14.5308 2.14702 12.4887 2.5389 10.5186C2.93079 8.5485 3.89807 6.73883 5.31845 5.31845C6.73883 3.89807 8.5485 2.93079 10.5186 2.5389C12.4887 2.14702 14.5308 2.34815 16.3866 3.11685C18.2424 3.88556 19.8286 5.18731 20.9446 6.85749C22.0606 8.52768 22.6563 10.4913 22.6563 12.5C22.6563 15.1936 21.5862 17.7769 19.6816 19.6816C17.7769 21.5862 15.1936 22.6563 12.5 22.6563ZM12.5 3.90625C10.8003 3.90625 9.13881 4.41027 7.72557 5.35456C6.31234 6.29886 5.21086 7.64102 4.56041 9.21132C3.90997 10.7816 3.73979 12.5095 4.07138 14.1766C4.40297 15.8436 5.22145 17.3748 6.42331 18.5767C7.62516 19.7786 9.15642 20.597 10.8234 20.9286C12.4905 21.2602 14.2184 21.09 15.7887 20.4396C17.359 19.7892 18.7012 18.6877 19.6454 17.2744C20.5897 15.8612 21.0938 14.1997 21.0938 12.5C21.0938 10.2208 20.1883 8.03495 18.5767 6.42331C16.9651 4.81167 14.7792 3.90625 12.5 3.90625Z" fill="#F0EADE"/>
<path d="M16.7969 17.5781C16.6941 17.5787 16.5921 17.559 16.497 17.5201C16.4018 17.4813 16.3152 17.424 16.2422 17.3516L11.9453 13.0547C11.8729 12.9817 11.8156 12.8951 11.7768 12.7999C11.7379 12.7047 11.7182 12.6028 11.7188 12.5V6.25C11.7188 6.0428 11.8011 5.84409 11.9476 5.69757C12.0941 5.55106 12.2928 5.46875 12.5 5.46875C12.7072 5.46875 12.9059 5.55106 13.0524 5.69757C13.199 5.84409 13.2813 6.0428 13.2813 6.25V12.1797L17.3516 16.2422C17.4248 16.3148 17.4829 16.4012 17.5226 16.4964C17.5622 16.5916 17.5827 16.6937 17.5827 16.7969C17.5827 16.9 17.5622 17.0021 17.5226 17.0973C17.4829 17.1925 17.4248 17.2789 17.3516 17.3516C17.2786 17.424 17.192 17.4813 17.0968 17.5201C17.0016 17.559 16.8997 17.5787 16.7969 17.5781Z" fill="#F0EADE"/>
</svg>
