<svg width="26" height="25" viewBox="0 0 26 25" fill="none" xmlns="http://www.w3.org/2000/svg">
<path d="M5 1.99998C3.62524 1.99998 2.5 3.12522 2.5 4.49998V20.5C2.5 21.8747 3.62524 23 5 23H21C22.3748 23 23.5 21.8747 23.5 20.5V4.49998C23.5 3.12522 22.3748 1.99998 21 1.99998H5ZM5 2.99998H21C21.8342 2.99998 22.5 3.66574 22.5 4.49998V20.5C22.5 21.3342 21.8342 22 21 22H5C4.16576 22 3.5 21.3342 3.5 20.5V4.49998C3.5 3.66574 4.16576 2.99998 5 2.99998ZM12.1982 7.99608C11.6695 7.99486 11.198 8.02441 10.7764 8.23143C10.776 8.23175 10.7757 8.23208 10.7754 8.2324C10.5698 8.33368 10.4249 8.46233 10.3096 8.61522C10.2519 8.69166 10.1928 8.76028 10.1611 8.93455C10.1453 9.02169 10.1364 9.16289 10.2275 9.31541C10.3187 9.46793 10.5019 9.55466 10.6191 9.57029C10.7006 9.58113 10.8844 9.65938 10.9014 9.6826C10.9017 9.68325 10.902 9.6839 10.9023 9.68455C10.9025 9.68472 10.9736 9.87055 10.9941 10.0361C11.0146 10.2017 11.0137 10.3359 11.0137 10.3359C11.0135 10.3493 11.0138 10.3626 11.0146 10.376C11.0146 10.376 11.0436 10.8097 11.0244 11.2578C11.0168 11.4364 10.9937 11.5952 10.9697 11.7373C10.7917 11.5407 10.5293 11.1847 10.1504 10.5283C9.73004 9.7997 9.39551 9.14647 9.39551 9.14647C9.37794 9.08955 9.3158 8.91249 9.07324 8.73436C8.80808 8.53892 8.55176 8.50975 8.55176 8.50975C8.5196 8.5033 8.48689 8.50003 8.4541 8.49998L6.4834 8.50096C6.4834 8.50096 6.36524 8.49412 6.22363 8.51365C6.08202 8.53318 5.86879 8.54908 5.66309 8.79295C5.66276 8.79327 5.66243 8.7936 5.66211 8.79393C5.47827 9.01359 5.48939 9.25639 5.51172 9.39354C5.53405 9.53068 5.58398 9.63475 5.58398 9.63475C5.58495 9.63671 5.58592 9.63866 5.58691 9.64061C5.58691 9.64061 7.19886 13.0297 9.02051 15.0254C10.3433 16.4744 11.7011 16.499 12.8213 16.499H13.6572C13.8706 16.499 14.0637 16.4907 14.2773 16.3662C14.491 16.2417 14.6348 15.9387 14.6348 15.7285C14.6348 15.5082 14.6676 15.3351 14.708 15.2461C14.7364 15.1835 14.7589 15.1609 14.7939 15.1426C14.8014 15.1473 14.7966 15.1445 14.8174 15.1592C14.9006 15.2177 15.0381 15.3511 15.1875 15.5176C15.4864 15.8504 15.8256 16.307 16.2812 16.6201C16.6077 16.8446 16.916 16.9443 17.1504 16.9804C17.2973 17.0031 17.4113 16.9987 17.4922 16.9922L19.3594 17C19.3704 17 19.3815 16.9997 19.3926 16.999C19.3926 16.999 19.7143 17.0028 20.0488 16.8027C20.2161 16.7027 20.4134 16.513 20.4775 16.2363C20.5417 15.9596 20.4611 15.6729 20.3037 15.4111C20.3037 15.4108 20.3037 15.4105 20.3037 15.4101C20.331 15.4554 20.279 15.3624 20.2256 15.2754C20.1722 15.1884 20.0947 15.0712 19.9834 14.9258C19.7608 14.6349 19.4043 14.2279 18.8281 13.6914C18.8278 13.6914 18.8275 13.6914 18.8271 13.6914C18.5345 13.4191 18.3369 13.2263 18.2559 13.1191C18.1749 13.0119 18.2014 13.0682 18.207 13.041C18.2182 12.9865 18.5695 12.4798 19.2842 11.5254C19.7186 10.9444 20.0235 10.5083 20.2246 10.1455C20.4257 9.78271 20.5707 9.46853 20.4697 9.08397C20.4694 9.08331 20.4691 9.08266 20.4687 9.08201C20.4239 8.9132 20.3015 8.7576 20.1758 8.67283C20.0501 8.58806 19.9309 8.55491 19.8242 8.53416C19.6109 8.49267 19.4248 8.49998 19.252 8.49998C18.8896 8.49998 17.2817 8.51268 17.1494 8.51268C16.993 8.51268 16.7345 8.5838 16.6201 8.65232C16.3326 8.82537 16.25 9.05272 16.25 9.05272C16.2448 9.06232 16.2399 9.07209 16.2353 9.08201C16.2353 9.08201 15.9037 9.81747 15.4766 10.5439C15.0439 11.2808 14.7242 11.6322 14.5312 11.7949C14.5259 11.766 14.5269 11.7895 14.5234 11.749C14.5061 11.5432 14.5254 11.2589 14.5254 10.9814C14.5254 10.2342 14.5887 9.71118 14.5547 9.249C14.5377 9.01792 14.4949 8.77962 14.3428 8.56053C14.1907 8.34143 13.9376 8.1991 13.6875 8.13865C13.5374 8.10245 13.3664 8.0083 12.7471 8.00193C12.7467 8.00193 12.7464 8.00193 12.7461 8.00193C12.5567 8.00004 12.3745 7.99648 12.1982 7.99608ZM12.7363 9.00193C13.2843 9.00756 13.1478 9.03773 13.4521 9.11131C13.5465 9.13411 13.5237 9.13399 13.5215 9.13084C13.5193 9.12769 13.547 9.17925 13.5576 9.32322C13.5788 9.61117 13.5254 10.1837 13.5254 10.9814C13.5254 11.199 13.4991 11.5094 13.5264 11.833C13.5536 12.1566 13.6338 12.5719 14.0205 12.8222C14.2038 12.9411 14.4166 12.9485 14.5986 12.9033C14.7806 12.8581 14.9458 12.7638 15.1191 12.625C15.4659 12.3473 15.8527 11.8787 16.3389 11.0508C16.7933 10.2779 17.1238 9.54197 17.1348 9.51756C17.1369 9.51584 17.1391 9.51466 17.1416 9.51268C17.1478 9.51274 17.1414 9.51268 17.1494 9.51268C17.3361 9.51268 18.9143 9.49998 19.252 9.49998C19.3308 9.49998 19.3595 9.50473 19.4219 9.50682C19.4049 9.56345 19.4238 9.52733 19.3496 9.66111C19.1941 9.94171 18.9075 10.3587 18.4834 10.9258C17.7866 11.8563 17.3547 12.221 17.2275 12.8388C17.164 13.1478 17.2831 13.4902 17.458 13.7217C17.6329 13.9531 17.8536 14.1514 18.1465 14.4238C18.6888 14.9288 19.0069 15.2956 19.1895 15.5342C19.2807 15.6534 19.3383 15.7396 19.374 15.7978C19.4098 15.8561 19.4009 15.8499 19.4473 15.9267C19.4778 15.9778 19.4665 15.9467 19.4717 15.9619C19.4117 15.9788 19.3391 15.9991 19.335 16L17.4961 15.9922C17.463 15.9921 17.4299 15.9954 17.3975 16.0019C17.3975 16.0019 17.4021 16.0073 17.3037 15.9922C17.2053 15.977 17.0489 15.9344 16.8477 15.7959C16.6048 15.629 16.2648 15.2206 15.9316 14.8496C15.7651 14.6641 15.599 14.4859 15.3926 14.3408C15.1862 14.1957 14.8774 14.0592 14.5439 14.164C14.1978 14.2727 13.9284 14.5428 13.7969 14.833C13.699 15.049 13.691 15.2746 13.6758 15.499C13.6592 15.5003 13.6783 15.499 13.6572 15.499H12.8213C11.6855 15.499 10.8789 15.5776 9.75879 14.3506C8.25204 12.6999 6.87156 9.95349 6.64648 9.50096L8.38086 9.49998C8.41134 9.51168 8.47659 9.53618 8.48047 9.53904C8.48112 9.5397 8.48177 9.54035 8.48242 9.541C8.41902 9.49466 8.48535 9.55955 8.48535 9.55955C8.49147 9.57452 8.49832 9.58919 8.50586 9.6035C8.50586 9.6035 8.84952 10.2749 9.28418 11.0283C9.71054 11.7669 10.0212 12.2283 10.3213 12.5332C10.4713 12.6856 10.6228 12.8079 10.8252 12.8769C11.0276 12.946 11.289 12.9206 11.4648 12.8242C11.8241 12.6276 11.8723 12.3375 11.9307 12.084C11.9891 11.83 12.0123 11.5595 12.0234 11.3008C12.045 10.7985 12.0145 10.3637 12.0127 10.3369C12.0128 10.3275 12.0151 10.1462 11.9863 9.91404C11.9569 9.67632 11.924 9.38566 11.709 9.09275L11.708 9.09178C11.7065 9.08973 11.7046 9.08987 11.7031 9.08787C11.9875 9.04709 12.2308 8.99688 12.7363 9.00193ZM17.1475 9.49217L17.1406 9.50779C17.1396 9.5084 17.1399 9.50707 17.1387 9.50779C17.1408 9.50376 17.1475 9.49217 17.1475 9.49217Z" fill="#F0EADE"/>
</svg>
