<svg width="25" height="25" viewBox="0 0 25 25" fill="none" xmlns="http://www.w3.org/2000/svg">
<path d="M12.5 0.999989C6.15477 0.999989 1 6.15476 1 12.5C1 14.5395 1.55934 16.4429 2.49219 18.1045L1.01855 23.3652C0.995012 23.4494 0.993948 23.5383 1.01547 23.623C1.03699 23.7077 1.08035 23.7853 1.14121 23.8481C1.20207 23.9108 1.27832 23.9565 1.36235 23.9806C1.44638 24.0047 1.53526 24.0063 1.62012 23.9853L7.10547 22.626C8.71731 23.4865 10.5463 24 12.5 24C18.8452 24 24 18.8452 24 12.5C24 6.15476 18.8452 0.999989 12.5 0.999989ZM12.5 1.99999C18.3048 1.99999 23 6.69522 23 12.5C23 18.3048 18.3048 23 12.5 23C10.639 23 8.89606 22.5148 7.38086 21.667C7.27004 21.6051 7.13982 21.5876 7.0166 21.6182L2.21289 22.8086L3.50098 18.2129C3.51941 18.1479 3.5245 18.0799 3.51594 18.013C3.50738 17.946 3.48535 17.8815 3.45117 17.8232C2.53034 16.2618 2 14.445 2 12.5C2 6.69522 6.69523 1.99999 12.5 1.99999ZM8.32129 6.49999C8.00077 6.49999 7.54302 6.61923 7.16699 7.0244C6.94113 7.26776 6 8.18474 6 9.79686C6 11.4776 7.16569 12.9279 7.30664 13.1142H7.30762V13.1152C7.29425 13.0977 7.48651 13.3761 7.74316 13.71C7.99981 14.0438 8.3587 14.4823 8.80957 14.957C9.7113 15.9064 10.9791 17.0037 12.5527 17.6748C13.2774 17.9834 13.8491 18.1697 14.2822 18.3057C15.0849 18.5577 15.816 18.5194 16.3652 18.4385C16.7763 18.3779 17.2284 18.1805 17.6758 17.8975C18.1231 17.6144 18.5615 17.2624 18.7549 16.7275C18.8934 16.3441 18.9638 15.9898 18.9893 15.6982C19.002 15.5525 19.0036 15.4238 18.9941 15.3047C18.9847 15.1856 18.9948 15.0943 18.8838 14.9121C18.651 14.5299 18.3874 14.5199 18.1123 14.3838C17.9595 14.3081 17.5243 14.0957 17.0879 13.8877C16.6519 13.6799 16.2745 13.496 16.042 13.4131C15.8951 13.3602 15.7158 13.2842 15.457 13.3135C15.1983 13.3428 14.9427 13.5295 14.7939 13.75C14.6529 13.959 14.0852 14.6292 13.9121 14.8262C13.9098 14.8248 13.9248 14.8317 13.8564 14.7978C13.6424 14.6919 13.3806 14.6018 12.9932 14.3975C12.6057 14.1931 12.1211 13.8913 11.5908 13.4238V13.4228C10.8015 12.728 10.2486 11.8555 10.0742 11.5625C10.086 11.5485 10.0728 11.5654 10.0977 11.541L10.0986 11.54C10.2769 11.3645 10.4349 11.1547 10.5684 11.001C10.7576 10.7829 10.8412 10.5907 10.9316 10.4111C11.112 10.0532 11.0116 9.65936 10.9072 9.45214V9.45116C10.9144 9.4655 10.8508 9.32507 10.7822 9.16308C10.7135 9.00062 10.6258 8.79001 10.5322 8.56542C10.345 8.11624 10.136 7.61245 10.0117 7.31737V7.3164C9.86529 6.96883 9.6672 6.71844 9.4082 6.59764C9.14921 6.47685 8.92039 6.51119 8.91113 6.51073H8.91015C8.72533 6.50221 8.52252 6.49999 8.32129 6.49999ZM8.32129 7.49999C8.51406 7.49999 8.70411 7.50234 8.86328 7.50976C9.02703 7.51791 9.01684 7.51859 8.98535 7.5039C8.95336 7.48898 8.99676 7.48413 9.08984 7.70507C9.21155 7.99399 9.42158 8.49961 9.60937 8.95018C9.70327 9.17547 9.79114 9.3869 9.86133 9.55272C9.93151 9.71855 9.96954 9.81114 10.0137 9.8994V9.90038L10.0146 9.90136C10.0579 9.98673 10.0541 9.93207 10.0391 9.9619C9.93355 10.1713 9.91923 10.2227 9.8125 10.3457C9.64999 10.5329 9.48423 10.7417 9.39648 10.8281C9.31972 10.9035 9.18121 11.021 9.09472 11.251C9.00811 11.4813 9.04854 11.7973 9.1875 12.0332C9.37251 12.3473 9.9822 13.3396 10.9297 14.1738C11.5264 14.6998 12.0823 15.048 12.5264 15.2822C12.9705 15.5165 13.3321 15.6533 13.4131 15.6933C13.6053 15.7885 13.8153 15.8623 14.0596 15.833C14.3038 15.8037 14.5144 15.6555 14.6484 15.5039L14.6494 15.5029C14.8278 15.3007 15.3579 14.6954 15.6123 14.3223C15.6231 14.3261 15.6196 14.3231 15.7041 14.3535V14.3545H15.7051C15.7437 14.3682 16.2271 14.5846 16.6582 14.79C17.0893 14.9954 17.5268 15.2089 17.6689 15.2793C17.8741 15.3808 17.9711 15.4469 17.9961 15.4473C17.9978 15.4912 17.9995 15.5389 17.9932 15.6113C17.9756 15.8121 17.9219 16.0901 17.8144 16.3877C17.7618 16.5334 17.4875 16.8338 17.1416 17.0527C16.7957 17.2716 16.3747 17.4262 16.2187 17.4492C15.7499 17.5183 15.1933 17.5435 14.582 17.3516C14.1582 17.2185 13.6297 17.0463 12.9453 16.7549C11.5574 16.163 10.3778 15.1557 9.53515 14.2685C9.11384 13.8249 8.77628 13.412 8.53613 13.0996C8.29643 12.7878 8.19176 12.6255 8.10449 12.5107L8.10351 12.5098C7.9486 12.3049 7 10.9854 7 9.79686C7 8.53898 7.58425 8.04571 7.90039 7.70507C8.06636 7.52624 8.24781 7.49999 8.32129 7.49999Z" fill="#F0EADE"/>
</svg>
